<svg width="163" height="50" viewBox="0 0 163 50" fill="none" xmlns="http://www.w3.org/2000/svg">
    <g clip-path="url(#clip0_771_3801)">
        <path d="M43.808 35.101C42.8208 33.47 41.4409 32.4206 39.6961 32.0551C35.8192 31.2438 31.2179 33.7469 28.1208 35.8098L30.1698 37.2995C33.8393 34.9265 37.0276 33.8881 39.1817 34.3699C40.2823 34.6164 41.134 35.256 41.7811 36.3304C42.6493 37.7675 42.6493 39.4814 41.7811 40.9185C41.0814 42.0704 40.1468 42.7294 38.9163 42.926C35.1168 43.5407 29.4371 39.642 27.3078 37.8865C27.0092 37.629 20.3975 32.0496 14.8007 32.0496C14.3914 32.0496 13.9849 32.0772 13.5895 32.1409C11.6594 32.4538 10.1413 33.506 9.07666 35.2643C7.74105 37.4712 7.74105 40.1017 9.07666 42.3085C10.0638 43.9395 11.4437 44.9889 13.1886 45.3544C17.0654 46.1657 21.6668 43.6626 24.7638 41.5997L22.7148 40.11C19.0453 42.483 15.857 43.5213 13.7029 43.0396C12.6023 42.7931 11.7506 42.1535 11.1036 41.0791C10.2353 39.642 10.2353 37.9281 11.1036 36.491C11.8032 35.3391 12.7378 34.6801 13.9684 34.4835C17.7678 33.8688 23.4476 37.7675 25.5768 39.523C25.8754 39.7805 32.4871 45.3599 38.0839 45.3599C38.4932 45.3599 38.8997 45.3322 39.2951 45.2686C41.2252 44.9557 42.7434 43.9035 43.808 42.1452C45.1436 39.9383 45.1436 37.3078 43.808 35.101Z" fill="white" />
        <path d="M45.6688 7.02908C45.4559 5.19326 43.6861 3.81432 41.8085 4.01922C39.6682 4.25181 38.3879 6.35068 38.3879 8.24742V12.9962C37.2376 14.0955 36.0624 15.2252 34.9286 16.3854L26.3481 25.163L17.7676 16.3854C16.6339 15.2252 15.4586 14.0955 14.3083 12.9962V8.24742C14.3055 6.35345 13.0252 4.25458 10.8849 4.01922C9.00459 3.81709 7.23761 5.19326 7.02192 7.02908C6.79517 8.97565 8.28563 10.4543 9.27282 11.4345C10.1522 12.3067 11.0564 13.1706 11.9357 14.0124V29.6958H14.3055V16.2857C14.9028 16.8672 15.4946 17.4542 16.0725 18.044L24.7 26.8714C24.0032 27.6966 23.1239 28.9952 23.1183 30.3188C23.1156 31.1412 23.4391 31.8777 24.0502 32.4426C24.8217 33.1597 25.6762 33.5252 26.4947 33.5252C27.1086 33.5252 27.7031 33.3203 28.2285 32.9022C29.2406 32.0964 29.7632 31.0609 29.6968 29.9837C29.6249 28.8429 28.8507 27.9181 28.2838 27.2425L28.1511 27.0819C28.0957 27.0154 28.0377 26.949 27.9824 26.8825L36.6182 18.0468C37.1961 17.4542 37.7906 16.8672 38.3852 16.2885V29.6985H40.755V14.0152C41.6343 13.1762 42.5386 12.3095 43.4179 11.4373C44.4051 10.457 45.8955 8.97842 45.6688 7.03185V7.02908ZM11.9357 10.7256C11.6011 10.4017 11.2693 10.0749 10.9403 9.75096C10.2406 9.05595 9.28111 8.10343 9.37513 7.30597C9.43597 6.79095 9.96136 6.37283 10.5116 6.37283C10.5504 6.37283 10.5891 6.37283 10.6278 6.37837C11.3993 6.46144 11.9357 7.43058 11.9357 8.24742V10.7284V10.7256ZM26.7546 31.0442C26.4311 31.3018 25.9803 30.9999 25.6568 30.7009C25.513 30.568 25.4854 30.46 25.4854 30.3271C25.4854 29.8591 25.8808 29.1918 26.3371 28.6103L26.467 28.7654C26.8016 29.1641 27.3077 29.7678 27.3298 30.1277C27.3547 30.5209 26.9343 30.9003 26.7518 31.0442H26.7546ZM41.7505 9.75096C41.4214 10.0777 41.0896 10.4017 40.755 10.7256V8.24465C40.755 7.42781 41.2914 6.45867 42.0629 6.3756C42.1016 6.37007 42.1404 6.37007 42.1791 6.37007C42.7294 6.37007 43.2575 6.79095 43.3156 7.3032C43.4096 8.10343 42.4501 9.05595 41.7505 9.74819V9.75096Z" fill="white" />
        <path d="M26.445 13.3119C28.357 13.3119 29.9071 11.7598 29.9071 9.84515C29.9071 7.93053 28.357 6.37842 26.445 6.37842C24.5329 6.37842 22.9829 7.93053 22.9829 9.84515C22.9829 11.7598 24.5329 13.3119 26.445 13.3119Z" fill="white" />
        <path d="M68.919 15.8098L63.7895 22.9537H63.2724L58.2065 15.8098V27.3979H55.7925V12.2932H58.5937L63.5711 19.3707L68.5291 12.2932H71.3303V27.4006H68.9163V15.8126L68.919 15.8098Z" fill="white" />
        <path d="M75.4285 27.3784V12.271H77.8204V27.3784H75.4285Z" fill="white" />
        <path d="M92.3239 23.0173V12.271H94.7379V27.3784H92.9073L84.3517 16.7179V27.3784H81.9155V12.271H83.7682L92.3239 23.0173Z" fill="white" />
        <path d="M98.8333 27.3784V12.271H101.225V27.3784H98.8333Z" fill="white" />
        <path d="M118.444 15.8098L113.315 22.9537H112.798L107.732 15.8098V27.3979H105.318V12.2932H108.119L113.096 19.3707L118.055 12.2932H120.856V27.4006H118.442V15.8126L118.444 15.8098Z" fill="white" />
        <path d="M137.56 12.2932V21.1206C137.56 23.2638 136.944 24.9086 135.708 26.0522C134.472 27.1957 132.898 27.7329 130.987 27.6609C129.207 27.6166 127.722 27.0268 126.538 25.8916C125.352 24.7563 124.76 23.1641 124.76 21.1234V12.296H127.152V21.1234C127.152 22.4608 127.503 23.5047 128.208 24.2523C128.913 25 129.84 25.3959 130.987 25.4402C132.223 25.5122 133.23 25.1633 134.004 24.3936C134.781 23.6238 135.168 22.5328 135.168 21.1234V12.296H137.56V12.2932Z" fill="white" />
        <path d="M154.586 15.8098L149.457 22.9537H148.939L143.874 15.8098V27.3979H141.459V12.2932H144.261L149.238 19.3707L154.196 12.2932H156.997V27.4006H154.583V15.8126L154.586 15.8098Z" fill="white" />
        <path d="M60.5128 31.662C60.3469 31.4239 60.1091 31.2356 59.8021 31.0999C59.4952 30.9642 59.1578 30.8922 58.7928 30.8867C58.3172 30.8867 57.9301 30.9808 57.6314 31.1691C57.3328 31.3574 57.1835 31.6149 57.1835 31.9389C57.1835 32.2435 57.3273 32.465 57.6148 32.6062C57.9024 32.7447 58.3227 32.8554 58.8703 32.9357C59.2795 32.9966 59.6307 33.0659 59.9238 33.1434C60.2169 33.2209 60.5017 33.34 60.7866 33.495C61.0714 33.6501 61.2871 33.8633 61.4364 34.1319C61.5857 34.4005 61.6604 34.7189 61.6604 35.0927C61.6604 35.5912 61.5166 36.0037 61.229 36.336C60.9414 36.6683 60.5902 36.9009 60.1755 37.0365C59.7607 37.1722 59.2961 37.2414 58.779 37.2414C57.3549 37.2414 56.3594 36.7153 55.7898 35.6604L56.6249 35.1038C57.0756 35.8653 57.7974 36.2474 58.7901 36.2474C59.0942 36.2474 59.3735 36.2142 59.6252 36.1477C59.8768 36.0813 60.0925 35.9567 60.275 35.7739C60.4575 35.5911 60.5488 35.3641 60.5488 35.0927C60.5488 34.7411 60.3911 34.4808 60.0759 34.3119C59.7607 34.143 59.3265 34.0212 58.7707 33.9492C58.4527 33.9104 58.179 33.8633 57.9522 33.8107C57.7255 33.7581 57.4849 33.6806 57.2332 33.5809C56.9816 33.4812 56.777 33.3621 56.6221 33.2237C56.4673 33.0852 56.3373 32.9053 56.235 32.681C56.1327 32.4595 56.0801 32.2047 56.0801 31.9195C56.0801 31.5734 56.1603 31.2688 56.318 31.0058C56.4756 30.7427 56.6885 30.5323 56.954 30.38C57.2194 30.2277 57.5042 30.1142 57.8084 30.0366C58.1126 29.9591 58.4306 29.9231 58.7624 29.9231C60.0012 29.9231 60.864 30.3135 61.3534 31.0971L60.51 31.6648L60.5128 31.662Z" fill="white" />
        <path d="M67.1161 31.1248H64.832V30.1196H70.5118V31.1248H68.2388V37.0808H67.1161V31.1248Z" fill="white" />
        <path d="M80.1764 37.0808H78.8768L76.7614 34.6746H75.293V37.0808H74.1814V30.1113C74.5381 30.1113 75.0773 30.1113 75.7991 30.1169C76.5208 30.1196 77.06 30.1224 77.4167 30.1224C78.1855 30.1224 78.7855 30.3467 79.2197 30.7925C79.6538 31.2411 79.8695 31.7755 79.8695 32.3985C79.8695 32.9495 79.7146 33.423 79.4077 33.8245C79.1007 34.226 78.6251 34.4724 77.9836 34.5666L80.0603 36.8842L80.1792 37.0836L80.1764 37.0808ZM75.2903 31.1358V33.6611H77.4057C77.8426 33.6611 78.1744 33.5421 78.3984 33.3039C78.6224 33.0658 78.7357 32.7695 78.7357 32.4179C78.7357 32.0662 78.6224 31.7727 78.3984 31.518C78.1744 31.2632 77.8453 31.1358 77.4167 31.1358H75.293H75.2903Z" fill="white" />
        <path d="M89.0943 37.0808H83.9592V30.1196H89.0638V31.2023H85.0708V33.0824H88.9035V34.1152H85.0708V35.9843H89.0915V37.078L89.0943 37.0808Z" fill="white" />
        <path d="M97.2986 31.662C97.1327 31.4239 96.8977 31.2356 96.588 31.0999C96.281 30.9642 95.9437 30.8922 95.5814 30.8867C95.1058 30.8867 94.7159 30.9808 94.42 31.1691C94.1214 31.3574 93.972 31.6149 93.972 31.9389C93.972 32.2435 94.1158 32.465 94.4034 32.6062C94.691 32.7447 95.1113 32.8554 95.6588 32.9357C96.0681 32.9966 96.4193 33.0659 96.7124 33.1434C97.0027 33.2237 97.2903 33.34 97.5751 33.495C97.86 33.6501 98.0756 33.8633 98.225 34.1319C98.3743 34.4005 98.449 34.7189 98.449 35.0927C98.449 35.5912 98.3052 36.0037 98.0176 36.336C97.73 36.6683 97.3788 36.9009 96.964 37.0365C96.5492 37.1722 96.0847 37.2414 95.5676 37.2414C94.1435 37.2414 93.148 36.7153 92.5784 35.6604L93.4135 35.1038C93.8642 35.8653 94.5859 36.2474 95.5786 36.2474C95.8828 36.2474 96.1621 36.2142 96.4137 36.1477C96.6654 36.0813 96.8811 35.9567 97.0636 35.7739C97.2461 35.5911 97.3373 35.3641 97.3373 35.0927C97.3373 34.7411 97.1797 34.4808 96.8645 34.3119C96.5492 34.143 96.1151 34.0212 95.5593 33.9492C95.2413 33.9104 94.9675 33.8633 94.7408 33.8107C94.514 33.7581 94.2735 33.6806 94.0218 33.5809C93.7702 33.4812 93.5656 33.3621 93.4107 33.2237C93.2558 33.0852 93.1259 32.9053 93.0236 32.681C92.9213 32.4595 92.8687 32.2047 92.8687 31.9195C92.8687 31.5734 92.9489 31.2688 93.1065 31.0058C93.2669 30.7399 93.4771 30.5323 93.7425 30.38C94.008 30.2277 94.2928 30.1142 94.597 30.0366C94.9012 29.9591 95.2192 29.9231 95.551 29.9231C96.7898 29.9231 97.6526 30.3135 98.142 31.0971L97.2986 31.6648V31.662Z" fill="white" />
        <path d="M106.477 31.662C106.311 31.4239 106.076 31.2356 105.766 31.0999C105.459 30.9642 105.122 30.8922 104.759 30.8867C104.284 30.8867 103.897 30.9808 103.598 31.1691C103.299 31.3574 103.15 31.6149 103.15 31.9389C103.15 32.2435 103.294 32.465 103.581 32.6062C103.869 32.7447 104.289 32.8554 104.837 32.9357C105.246 32.9966 105.597 33.0659 105.89 33.1434C106.181 33.2237 106.471 33.34 106.756 33.495C107.041 33.6501 107.256 33.8633 107.406 34.1319C107.555 34.4005 107.63 34.7189 107.63 35.0927C107.63 35.5912 107.486 36.0037 107.198 36.336C106.911 36.6683 106.559 36.9009 106.145 37.0365C105.73 37.1722 105.265 37.2414 104.748 37.2414C103.324 37.2414 102.329 36.7153 101.759 35.6604L102.594 35.1038C103.045 35.8653 103.767 36.2474 104.759 36.2474C105.063 36.2474 105.343 36.2142 105.594 36.1477C105.846 36.0813 106.062 35.9567 106.244 35.7739C106.427 35.5911 106.518 35.3641 106.518 35.0927C106.518 34.7411 106.36 34.4808 106.048 34.3119C105.733 34.143 105.299 34.0212 104.743 33.9492C104.425 33.9104 104.151 33.8633 103.924 33.8107C103.697 33.7581 103.457 33.6806 103.205 33.5809C102.954 33.4812 102.749 33.3621 102.594 33.2237C102.439 33.0852 102.309 32.9053 102.207 32.681C102.105 32.4595 102.052 32.2047 102.052 31.9195C102.052 31.5734 102.132 31.2688 102.29 31.0058C102.45 30.7399 102.66 30.5323 102.926 30.38C103.191 30.2277 103.476 30.1142 103.78 30.0366C104.085 29.9591 104.403 29.9231 104.734 29.9231C105.973 29.9231 106.836 30.3135 107.325 31.0971L106.482 31.6648L106.477 31.662Z" fill="white" />
        <path d="M157 32.8442H110.406V33.254H157V32.8442Z" fill="white" />
        <path d="M157 33.9075H110.406V34.3173H157V33.9075Z" fill="white" />
    </g>
    <defs>
        <clipPath id="clip0_771_3801">
            <rect width="150" height="41.5094" fill="white" transform="translate(7 4)" />
        </clipPath>
    </defs>
</svg>