<svg viewBox="0 0 1146 560" fill="none" xmlns="http://www.w3.org/2000/svg">
<path d="M853.921 -173.36C795.262 -263.324 631.067 -260.911 529.823 -211.938C413.155 -155.491 408.279 -50.8372 307.016 -34.4918C214.621 -19.5476 171.453 -99.1199 105.5 -83.9253C44.889 -69.9584 -19.0339 20.3604 -47.7855 332.551" stroke="url(#paint0_linear_33_1918)" stroke-miterlimit="10"/>
<path d="M-35.8534 340.193C-7.1866 32.3596 55.8901 -59.8936 116.253 -76.4201C161.018 -88.6123 195.597 -56.3584 242.538 -40.4828C266.195 -32.0732 291.569 -29.6708 316.381 -33.4912C397.681 -45.9494 418.428 -112.476 485.4 -168.244C502.442 -182.517 521.104 -194.737 541 -204.652C641.936 -255.365 800.801 -265.212 859.909 -179.735" stroke="url(#paint1_linear_33_1918)" stroke-miterlimit="10"/>
<path d="M-23.9194 347.794C4.6705 44.3342 66.8589 -49.8134 126.866 -68.8283C170.978 -82.8022 205.615 -52.8868 251.883 -38.6209C275.657 -30.9678 300.864 -28.8445 325.581 -32.4129C406.015 -44.0392 428.911 -105.938 496.585 -160.9C513.764 -174.909 532.347 -187.1 552.037 -197.28C652.828 -249.425 806.191 -267.03 865.748 -186.041" stroke="url(#paint2_linear_33_1918)" stroke-miterlimit="10"/>
<path d="M-12.0179 355.369C16.4852 56.3489 77.843 -39.6998 137.537 -61.2842C181.044 -77.0221 215.658 -49.4471 261.31 -36.7978C285.162 -29.8936 310.19 -28.0356 334.797 -31.3422C414.431 -42.1677 439.32 -99.3861 507.786 -153.564C525.089 -167.355 543.609 -179.547 563.116 -189.988C663.66 -243.74 811.607 -268.921 871.614 -192.42" stroke="url(#paint3_linear_33_1918)" stroke-miterlimit="10"/>
<path d="M-0.0776454 363.028C28.3251 68.3316 88.8015 -29.5538 148.232 -53.731C191.093 -71.193 225.767 -45.9974 270.762 -35.0067C294.708 -28.8495 319.598 -27.2615 344.13 -30.326C422.964 -40.3507 449.902 -92.8949 519.187 -146.322C536.596 -159.831 555.019 -171.98 574.293 -182.661C674.607 -238.028 817.145 -270.767 877.617 -198.762" stroke="url(#paint4_linear_33_1918)" stroke-miterlimit="10"/>
<path d="M11.7805 370.684C40.1483 80.322 99.0538 -21.0432 158.92 -46.1947C201.63 -64.1941 235.821 -42.6642 280.189 -33.1836C304.208 -27.7947 328.959 -26.4773 353.412 -29.2865C431.446 -38.5104 460.401 -86.3649 530.396 -138.969C547.905 -152.248 566.252 -164.385 585.322 -175.304C685.374 -232.353 822.526 -272.601 883.456 -205.067" stroke="url(#paint5_linear_33_1918)" stroke-miterlimit="10"/>
<path d="M23.7884 378.27C51.9963 92.321 110.773 -9.14599 169.552 -38.7338C211.164 -59.4211 245.955 -39.247 289.641 -31.3519C313.71 -26.727 338.329 -25.6752 362.703 -28.2305C439.937 -36.6537 470.951 -79.8585 541.672 -131.648C559.292 -144.676 577.57 -156.792 596.432 -167.946C696.254 -226.61 827.967 -274.483 889.369 -211.387" stroke="url(#paint6_linear_33_1918)" stroke-miterlimit="10"/>
<path d="M35.7129 385.895C63.7862 104.327 121.699 0.974531 180.285 -31.0975C221.187 -53.5598 256.052 -35.9947 299.077 -29.553C323.176 -25.6976 347.667 -24.9207 371.962 -27.2407C448.387 -34.8387 481.475 -73.3605 552.916 -124.393C569.549 -136.246 587.474 -148.543 607.504 -160.671C707.088 -221.007 833.43 -276.315 895.266 -217.74" stroke="url(#paint7_linear_33_1918)" stroke-miterlimit="10"/>
<path d="M47.6376 393.52C75.6671 116.311 132.711 11.2777 190.941 -23.5866C231.218 -47.682 266.174 -32.7336 308.538 -27.7865C332.666 -24.7078 357.051 -24.1898 381.286 -26.2412C456.912 -33.0384 492.017 -66.9116 564.234 -117.111C581.043 -128.804 598.934 -141.044 618.665 -153.377C717.871 -215.3 838.886 -278.164 901.163 -224.093" stroke="url(#paint8_linear_33_1918)" stroke-miterlimit="10"/>
<path d="M59.5718 401.121C87.5078 128.293 143.708 21.5473 201.652 -16.0007C241.297 -41.7049 276.395 -29.4787 317.94 -25.9315C342.068 -23.6249 366.347 -23.3593 390.519 -25.1376C465.361 -31.1419 502.516 -60.3409 575.437 -109.817C592.34 -121.31 610.247 -133.558 629.688 -146.079C728.725 -209.787 844.296 -280.113 907.03 -230.513" stroke="url(#paint9_linear_33_1918)" stroke-miterlimit="10"/>
<path d="M71.4963 408.746C99.3309 140.283 154.72 31.8506 212.29 -8.44086C251.31 -35.7372 286.467 -26.2352 327.359 -24.0839C351.472 -22.5721 375.656 -22.5716 399.768 -24.0825C473.794 -29.2782 512.991 -53.8196 586.71 -102.413C603.805 -113.713 621.655 -125.954 640.796 -138.639C739.548 -204.078 849.741 -281.855 912.958 -236.759" stroke="url(#paint10_linear_33_1918)" stroke-miterlimit="10"/>
<path d="M83.4202 416.371C111.178 152.283 165.764 42.1384 223.009 -0.919832C261.429 -29.7995 296.648 -23.0627 336.818 -22.2761C359.906 -21.8314 383.482 -21.514 409.083 -23.0583C482.301 -27.4698 523.556 -47.3205 598.01 -95.1238C615.257 -106.231 633.065 -118.473 651.956 -131.344C750.424 -198.515 855.254 -283.751 918.911 -243.118" stroke="url(#paint11_linear_33_1918)" stroke-miterlimit="10"/>
<path d="M95.3456 423.996C123.05 164.331 176.709 52.5134 233.689 6.64061C271.5 -23.839 306.814 -19.9241 346.262 -20.4611C369.542 -20.7752 393.043 -20.747 418.366 -22.0192C490.808 -25.5801 534.064 -40.8154 609.279 -87.8195C626.684 -98.7172 644.468 -110.968 663.019 -124.004C761.169 -192.932 860.67 -285.602 924.784 -249.439" stroke="url(#paint12_linear_33_1918)" stroke-miterlimit="10"/>
<path d="M107.237 431.637C134.85 176.272 187.844 62.8199 244.367 14.2016C281.593 -17.828 316.972 -16.8015 355.714 -18.629C379.186 -19.7427 402.603 -19.9794 427.59 -20.9316C499.225 -23.7495 544.522 -34.2451 620.562 -80.4812C638.128 -91.2107 655.854 -103.455 674.129 -116.646C771.963 -187.371 866.118 -287.467 930.689 -255.776" stroke="url(#paint13_linear_33_1918)" stroke-miterlimit="10"/>
<path d="M119.205 439.222C146.691 188.254 198.88 73.2135 255.056 21.7375C291.706 -11.8666 327.124 -13.7372 365.134 -16.8229C388.791 -18.753 412.174 -19.2368 436.932 -19.9404C507.734 -21.9418 555.106 -27.7956 631.823 -73.1936C650.225 -84.3417 668.044 -96.4248 685.211 -109.395C782.734 -181.82 871.633 -289.323 936.587 -262.129" stroke="url(#paint14_linear_33_1918)" stroke-miterlimit="10"/>
<path d="M131.129 446.847C158.538 200.254 210.023 83.4955 265.676 29.3052C301.758 -5.85682 337.217 -10.6655 374.594 -15.0152C398.428 -17.7783 421.742 -18.4937 446.215 -18.9007C516.233 -20.1092 565.638 -21.281 643.058 -65.8731C661.561 -76.7617 679.343 -88.8306 696.295 -102.005C793.457 -176.368 877.031 -291.165 942.478 -268.54" stroke="url(#paint15_linear_33_1918)" stroke-miterlimit="10"/>
<path d="M143.054 454.472C170.361 212.244 221.222 93.8937 276.413 36.8181C311.909 0.147047 347.395 -7.6741 384.013 -13.2088C408.016 -16.8214 431.286 -17.7186 455.481 -17.8535C524.682 -18.2535 576.146 -14.7756 654.359 -58.584C672.952 -69.2344 690.693 -81.3076 707.424 -94.6955C804.219 -170.792 882.487 -293.013 948.414 -274.81" stroke="url(#paint16_linear_33_1918)" stroke-miterlimit="10"/>
<path d="M154.996 462.089C182.241 224.309 232.264 104.304 287.093 44.3787C322.07 6.12636 357.508 -4.69267 393.441 -11.3859C417.664 -15.9125 440.839 -16.9681 464.764 -16.8142C533.15 -16.4466 586.663 -8.25357 665.635 -51.2628C684.311 -61.6844 702.013 -73.7634 718.527 -87.3541C814.949 -165.283 887.935 -294.879 954.32 -281.147" stroke="url(#paint17_linear_33_1918)" stroke-miterlimit="10"/>
<path d="M166.92 469.715C193.966 236.264 243.421 114.701 297.811 51.9817C332.252 12.197 367.626 -1.65318 402.931 -9.4707C427.281 -14.8068 450.479 -16.1164 474.093 -15.6748C541.694 -14.4732 597.241 -1.63927 676.933 -43.8914C695.692 -54.0834 713.357 -66.1701 729.652 -79.9624C825.694 -159.74 893.52 -296.667 960.255 -287.417" stroke="url(#paint18_linear_33_1918)" stroke-miterlimit="10"/>
<path d="M178.844 477.34C205.88 248.233 254.595 125.091 308.458 59.4763C342.388 18.1269 377.667 1.22019 412.328 -7.75482C436.784 -14.0735 459.976 -15.4406 483.344 -14.7015C550.129 -12.6914 607.718 4.80011 688.185 -36.6196C707.03 -46.5736 724.662 -58.6706 740.732 -72.6704C836.353 -154.338 898.839 -298.593 966.129 -293.819" stroke="url(#paint19_linear_33_1918)" stroke-miterlimit="10"/>
<path d="M190.778 484.94C217.72 260.215 265.808 135.563 319.079 67.0434C352.498 24.1704 387.649 4.18168 421.689 -5.90098C446.26 -13.1855 469.462 -14.6591 492.52 -13.6734C558.53 -10.8536 618.169 11.312 699.372 -29.3174C718.297 -39.0518 735.903 -51.1624 751.762 -65.3557C846.817 -149.008 904.229 -300.411 971.994 -300.157" stroke="url(#paint20_linear_33_1918)" stroke-miterlimit="10"/>
<path d="M202.686 492.574C246.246 134.945 344.013 25.0069 431.199 -4.11653C526.373 -35.9114 600.09 31.7084 710.713 -22.0269C840.476 -85.0807 898.183 -301.59 977.932 -306.509" stroke="url(#paint21_linear_33_1918)" stroke-miterlimit="10"/>
<defs>
<linearGradient id="paint0_linear_33_1918" x1="285.826" y1="-170.445" x2="419.041" y2="113.661" gradientUnits="userSpaceOnUse">
<stop stop-color="#515151"/>
<stop offset="1" stop-color="#515151" stop-opacity="0"/>
</linearGradient>
<linearGradient id="paint1_linear_33_1918" x1="297.996" y1="-162.965" x2="431.23" y2="121.182" gradientUnits="userSpaceOnUse">
<stop stop-color="#515151"/>
<stop offset="1" stop-color="#515151" stop-opacity="0"/>
</linearGradient>
<linearGradient id="paint2_linear_33_1918" x1="310.062" y1="-155.537" x2="443.339" y2="128.701" gradientUnits="userSpaceOnUse">
<stop stop-color="#515151"/>
<stop offset="1" stop-color="#515151" stop-opacity="0"/>
</linearGradient>
<linearGradient id="paint3_linear_33_1918" x1="322.093" y1="-148.227" x2="455.448" y2="136.179" gradientUnits="userSpaceOnUse">
<stop stop-color="#515151"/>
<stop offset="1" stop-color="#515151" stop-opacity="0"/>
</linearGradient>
<linearGradient id="paint4_linear_33_1918" x1="334.129" y1="-141.034" x2="467.646" y2="143.717" gradientUnits="userSpaceOnUse">
<stop stop-color="#515151"/>
<stop offset="1" stop-color="#515151" stop-opacity="0"/>
</linearGradient>
<linearGradient id="paint5_linear_33_1918" x1="345.967" y1="-133.982" x2="479.72" y2="151.272" gradientUnits="userSpaceOnUse">
<stop stop-color="#515151"/>
<stop offset="1" stop-color="#515151" stop-opacity="0"/>
</linearGradient>
<linearGradient id="paint6_linear_33_1918" x1="357.875" y1="-127.064" x2="491.902" y2="158.776" gradientUnits="userSpaceOnUse">
<stop stop-color="#515151"/>
<stop offset="1" stop-color="#515151" stop-opacity="0"/>
</linearGradient>
<linearGradient id="paint7_linear_33_1918" x1="369.73" y1="-120.148" x2="504.043" y2="166.3" gradientUnits="userSpaceOnUse">
<stop stop-color="#515151"/>
<stop offset="1" stop-color="#515151" stop-opacity="0"/>
</linearGradient>
<linearGradient id="paint8_linear_33_1918" x1="381.463" y1="-113.494" x2="516.183" y2="173.824" gradientUnits="userSpaceOnUse">
<stop stop-color="#515151"/>
<stop offset="1" stop-color="#515151" stop-opacity="0"/>
</linearGradient>
<linearGradient id="paint9_linear_33_1918" x1="393.174" y1="-106.909" x2="528.325" y2="181.327" gradientUnits="userSpaceOnUse">
<stop stop-color="#515151"/>
<stop offset="1" stop-color="#515151" stop-opacity="0"/>
</linearGradient>
<linearGradient id="paint10_linear_33_1918" x1="404.77" y1="-100.525" x2="540.457" y2="188.855" gradientUnits="userSpaceOnUse">
<stop stop-color="#515151"/>
<stop offset="1" stop-color="#515151" stop-opacity="0"/>
</linearGradient>
<linearGradient id="paint11_linear_33_1918" x1="416.316" y1="-94.3318" x2="552.622" y2="196.367" gradientUnits="userSpaceOnUse">
<stop stop-color="#515151"/>
<stop offset="1" stop-color="#515151" stop-opacity="0"/>
</linearGradient>
<linearGradient id="paint12_linear_33_1918" x1="427.73" y1="-88.3159" x2="564.747" y2="203.899" gradientUnits="userSpaceOnUse">
<stop stop-color="#515151"/>
<stop offset="1" stop-color="#515151" stop-opacity="0"/>
</linearGradient>
<linearGradient id="paint13_linear_33_1918" x1="439.045" y1="-82.5097" x2="576.871" y2="211.431" gradientUnits="userSpaceOnUse">
<stop stop-color="#515151"/>
<stop offset="1" stop-color="#515151" stop-opacity="0"/>
</linearGradient>
<linearGradient id="paint14_linear_33_1918" x1="450.268" y1="-77.0116" x2="589.03" y2="218.926" gradientUnits="userSpaceOnUse">
<stop stop-color="#515151"/>
<stop offset="1" stop-color="#515151" stop-opacity="0"/>
</linearGradient>
<linearGradient id="paint15_linear_33_1918" x1="461.336" y1="-71.796" x2="601.178" y2="226.446" gradientUnits="userSpaceOnUse">
<stop stop-color="#515151"/>
<stop offset="1" stop-color="#515151" stop-opacity="0"/>
</linearGradient>
<linearGradient id="paint16_linear_33_1918" x1="472.241" y1="-66.9078" x2="613.319" y2="233.97" gradientUnits="userSpaceOnUse">
<stop stop-color="#515151"/>
<stop offset="1" stop-color="#515151" stop-opacity="0"/>
</linearGradient>
<linearGradient id="paint17_linear_33_1918" x1="479.318" y1="-70.206" x2="625.468" y2="241.489" gradientUnits="userSpaceOnUse">
<stop stop-color="#515151"/>
<stop offset="1" stop-color="#515151" stop-opacity="0"/>
</linearGradient>
<linearGradient id="paint18_linear_33_1918" x1="486.046" y1="-74.224" x2="637.609" y2="249.013" gradientUnits="userSpaceOnUse">
<stop stop-color="#515151"/>
<stop offset="1" stop-color="#515151" stop-opacity="0"/>
</linearGradient>
<linearGradient id="paint19_linear_33_1918" x1="492.532" y1="-78.7596" x2="649.749" y2="256.538" gradientUnits="userSpaceOnUse">
<stop stop-color="#515151"/>
<stop offset="1" stop-color="#515151" stop-opacity="0"/>
</linearGradient>
<linearGradient id="paint20_linear_33_1918" x1="498.895" y1="-83.5372" x2="661.874" y2="264.048" gradientUnits="userSpaceOnUse">
<stop stop-color="#515151"/>
<stop offset="1" stop-color="#515151" stop-opacity="0"/>
</linearGradient>
<linearGradient id="paint21_linear_33_1918" x1="505.156" y1="-88.5723" x2="674.023" y2="271.569" gradientUnits="userSpaceOnUse">
<stop stop-color="#515151"/>
<stop offset="1" stop-color="#515151" stop-opacity="0"/>
</linearGradient>
</defs>
</svg>
