<svg width="33" height="35" viewBox="0 0 33 35" fill="none" xmlns="http://www.w3.org/2000/svg">
<path d="M31.1641 26.2237C30.3283 24.8486 29.16 23.9637 27.6827 23.6555C24.4003 22.9715 20.5045 25.0821 17.8823 26.8214L19.6172 28.0775C22.724 26.0767 25.4234 25.2011 27.2472 25.6074C28.179 25.8152 28.9001 26.3545 29.448 27.2604C30.1831 28.4721 30.1831 29.9173 29.448 31.129C28.8557 32.1003 28.0643 32.6559 27.0225 32.8217C23.8056 33.34 18.9967 30.0527 17.194 28.5725C16.9411 28.3554 11.3433 23.6509 6.60461 23.6509C6.25811 23.6509 5.91395 23.6742 5.57915 23.7279C3.94497 23.9917 2.65964 24.8789 1.75827 26.3615C0.627453 28.2223 0.627453 30.4403 1.75827 32.3011C2.59409 33.6762 3.76236 34.5611 5.23967 34.8693C8.52208 35.5533 12.4179 33.4427 15.0401 31.7034L13.3052 30.4473C10.1984 32.4481 7.49896 33.3237 5.67514 32.9174C4.74333 32.7096 4.02224 32.1703 3.47439 31.2644C2.73924 30.0527 2.73924 28.6075 3.47439 27.3958C4.06672 26.4245 4.85805 25.8689 5.8999 25.7031C9.11675 25.1848 13.9256 28.4721 15.7284 29.9523C15.9812 30.1694 21.5791 34.8739 26.3178 34.8739C26.6643 34.8739 27.0084 34.8506 27.3432 34.7969C28.9774 34.5331 30.2627 33.6459 31.1641 32.1633C32.2949 30.3025 32.2949 28.0845 31.1641 26.2237Z" fill="url(#paint0_linear_554_3468)"/>
<path d="M32.7396 2.55391C32.5594 1.00598 31.061 -0.156717 29.4713 0.0160535C27.6592 0.212171 26.5752 1.9819 26.5752 3.58119V7.58526C25.6012 8.51215 24.6062 9.46472 23.6463 10.443L16.3815 17.8441L9.11663 10.443C8.15673 9.46472 7.16171 8.51215 6.18775 7.58526V3.58119C6.18541 1.98423 5.10142 0.214506 3.28931 0.0160535C1.69728 -0.154382 0.201231 1.00598 0.018615 2.55391C-0.173366 4.19523 1.08856 5.44198 1.92438 6.26847C2.66889 7.00391 3.43447 7.73235 4.17898 8.44211V21.666H6.18541V10.3589C6.69112 10.8492 7.19214 11.3442 7.68146 11.8415L14.9861 19.2846C14.3961 19.9804 13.6516 21.0754 13.6469 22.1914C13.6446 22.8848 13.9185 23.5058 14.4359 23.9821C15.0891 24.5868 15.8125 24.895 16.5056 24.895C17.0253 24.895 17.5287 24.7222 17.9735 24.3697C18.8304 23.6903 19.2729 22.8171 19.2167 21.9089C19.1558 20.9469 18.5003 20.1671 18.0203 19.5975L17.9079 19.4621C17.8611 19.406 17.812 19.35 17.7651 19.294L25.0768 11.8438C25.5661 11.3442 26.0695 10.8492 26.5728 10.3613V21.6684H28.5793V8.44444C29.3238 7.73702 30.0894 7.00625 30.8339 6.27081C31.6697 5.44431 32.9316 4.19756 32.7396 2.55624V2.55391ZM4.17898 5.67078C3.89569 5.39762 3.61474 5.12212 3.33614 4.84895C2.74381 4.26294 1.9314 3.45979 2.011 2.78738C2.06251 2.35312 2.50734 2.00058 2.97325 2.00058C3.00602 2.00058 3.0388 2.00058 3.07158 2.00525C3.72478 2.07529 4.17898 2.89245 4.17898 3.58119V5.67311V5.67078ZM16.7256 22.8031C16.4517 23.0202 16.0701 22.7657 15.7962 22.5136C15.6744 22.4015 15.651 22.3104 15.651 22.1984C15.651 21.8038 15.9858 21.2411 16.3721 20.7508L16.4821 20.8816C16.7654 21.2178 17.1939 21.7267 17.2126 22.0303C17.2337 22.3618 16.8778 22.6817 16.7233 22.8031H16.7256ZM29.4221 4.84895C29.1435 5.12445 28.8626 5.39762 28.5793 5.67078V3.57886C28.5793 2.89011 29.0335 2.07295 29.6867 2.00291C29.7195 1.99824 29.7522 1.99824 29.785 1.99824C30.2509 1.99824 30.6981 2.35312 30.7473 2.78505C30.8269 3.45979 30.0144 4.26294 29.4221 4.84662V4.84895Z" fill="url(#paint1_linear_554_3468)"/>
<path d="M16.4634 7.85155C18.0823 7.85155 19.3947 6.54283 19.3947 4.92846C19.3947 3.31408 18.0823 2.00537 16.4634 2.00537C14.8446 2.00537 13.5322 3.31408 13.5322 4.92846C13.5322 6.54283 14.8446 7.85155 16.4634 7.85155Z" fill="url(#paint2_linear_554_3468)"/>
<defs>
<linearGradient id="paint0_linear_554_3468" x1="16.4635" y1="33.884" x2="16.4635" y2="1.11601" gradientUnits="userSpaceOnUse">
<stop stop-color="#FF6155"/>
<stop offset="0.07" stop-color="#FF655B"/>
<stop offset="0.16" stop-color="#FF726C"/>
<stop offset="0.27" stop-color="#FF8888"/>
<stop offset="0.39" stop-color="#FFA7AF"/>
<stop offset="0.59" stop-color="#FFCADE"/>
<stop offset="0.68" stop-color="#B3ADE7"/>
<stop offset="0.77" stop-color="#7394F0"/>
<stop offset="0.84" stop-color="#4181F6"/>
<stop offset="0.91" stop-color="#1D74FB"/>
<stop offset="0.97" stop-color="#076CFD"/>
<stop offset="1" stop-color="#0069FF"/>
</linearGradient>
<linearGradient id="paint1_linear_554_3468" x1="16.3791" y1="33.8837" x2="16.3791" y2="1.11571" gradientUnits="userSpaceOnUse">
<stop stop-color="#FF6155"/>
<stop offset="0.07" stop-color="#FF655B"/>
<stop offset="0.16" stop-color="#FF726C"/>
<stop offset="0.27" stop-color="#FF8888"/>
<stop offset="0.39" stop-color="#FFA7AF"/>
<stop offset="0.59" stop-color="#FFCADE"/>
<stop offset="0.68" stop-color="#B3ADE7"/>
<stop offset="0.77" stop-color="#7394F0"/>
<stop offset="0.84" stop-color="#4181F6"/>
<stop offset="0.91" stop-color="#1D74FB"/>
<stop offset="0.97" stop-color="#076CFD"/>
<stop offset="1" stop-color="#0069FF"/>
</linearGradient>
<linearGradient id="paint2_linear_554_3468" x1="16.4634" y1="33.8838" x2="16.4634" y2="1.11584" gradientUnits="userSpaceOnUse">
<stop stop-color="#FF6155"/>
<stop offset="0.07" stop-color="#FF655B"/>
<stop offset="0.16" stop-color="#FF726C"/>
<stop offset="0.27" stop-color="#FF8888"/>
<stop offset="0.39" stop-color="#FFA7AF"/>
<stop offset="0.59" stop-color="#FFCADE"/>
<stop offset="0.68" stop-color="#B3ADE7"/>
<stop offset="0.77" stop-color="#7394F0"/>
<stop offset="0.84" stop-color="#4181F6"/>
<stop offset="0.91" stop-color="#1D74FB"/>
<stop offset="0.97" stop-color="#076CFD"/>
<stop offset="1" stop-color="#0069FF"/>
</linearGradient>
</defs>
</svg>
