<svg width="127" height="39" viewBox="0 0 127 39" fill="none" xmlns="http://www.w3.org/2000/svg">
<g clip-path="url(#clip0_1345_6415)">
<path d="M31.1661 28.2237C30.3302 26.8486 29.162 25.9637 27.6847 25.6555C24.4023 24.9715 20.5064 27.0821 17.8843 28.8214L19.6191 30.0775C22.7259 28.0767 25.4254 27.2011 27.2492 27.6074C28.181 27.8152 28.9021 28.3545 29.4499 29.2604C30.1851 30.4721 30.1851 31.9173 29.4499 33.129C28.8576 34.1003 28.0663 34.6559 27.0244 34.8217C23.8076 35.34 18.9987 32.0527 17.1959 30.5725C16.9431 30.3554 11.3452 25.6509 6.60656 25.6509C6.26006 25.6509 5.9159 25.6742 5.58111 25.7279C3.94693 25.9917 2.66159 26.8789 1.76022 28.3615C0.629406 30.2223 0.629406 32.4403 1.76022 34.3011C2.59604 35.6762 3.76431 36.5611 5.24163 36.8693C8.52403 37.5533 12.4198 35.4427 15.042 33.7034L13.3072 32.4473C10.2004 34.4481 7.50091 35.3237 5.6771 34.9174C4.74529 34.7096 4.02419 34.1703 3.47634 33.2644C2.74119 32.0527 2.74119 30.6075 3.47634 29.3958C4.06867 28.4245 4.86001 27.8689 5.90185 27.7031C9.1187 27.1848 13.9276 30.4721 15.7303 31.9523C15.9832 32.1694 21.5811 36.8739 26.3197 36.8739C26.6662 36.8739 27.0104 36.8506 27.3452 36.7969C28.9794 36.5331 30.2647 35.6459 31.1661 34.1633C32.2969 32.3025 32.2969 30.0845 31.1661 28.2237Z" fill="url(#paint0_linear_1345_6415)"/>
<path d="M32.7406 4.55391C32.5603 3.00598 31.062 1.84328 29.4723 2.01605C27.6601 2.21217 26.5762 3.9819 26.5762 5.58119V9.58526C25.6022 10.5122 24.6072 11.4647 23.6473 12.443L16.3824 19.8441L9.11761 12.443C8.15771 11.4647 7.16268 10.5122 6.18873 9.58526V5.58119C6.18639 3.98423 5.1024 2.21451 3.29029 2.01605C1.69825 1.84562 0.202207 3.00598 0.0195916 4.55391C-0.172389 6.19523 1.08953 7.44198 1.92535 8.26847C2.66986 9.00391 3.43545 9.73235 4.17996 10.4421V23.666H6.18639V12.3589C6.6921 12.8492 7.19312 13.3442 7.68244 13.8415L14.9871 21.2846C14.3971 21.9804 13.6526 23.0754 13.6479 24.1914C13.6455 24.8848 13.9195 25.5058 14.4369 25.9821C15.0901 26.5868 15.8135 26.895 16.5065 26.895C17.0263 26.895 17.5296 26.7222 17.9745 26.3697C18.8314 25.6903 19.2739 24.8171 19.2177 23.9089C19.1568 22.9469 18.5013 22.1671 18.0213 21.5975L17.9089 21.4621C17.8621 21.406 17.8129 21.35 17.7661 21.294L25.0778 13.8438C25.5671 13.3442 26.0705 12.8492 26.5738 12.3613V23.6684H28.5802V10.4444C29.3248 9.73702 30.0903 9.00625 30.8349 8.27081C31.6707 7.44431 32.9326 6.19756 32.7406 4.55624V4.55391ZM4.17996 7.67078C3.89667 7.39762 3.61572 7.12212 3.33711 6.84895C2.74478 6.26294 1.93238 5.45979 2.01198 4.78738C2.06348 4.35312 2.50832 4.00058 2.97422 4.00058C3.007 4.00058 3.03978 4.00058 3.07255 4.00525C3.72576 4.07529 4.17996 4.89245 4.17996 5.58119V7.67311V7.67078ZM16.7266 24.8031C16.4527 25.0202 16.0711 24.7657 15.7971 24.5136C15.6754 24.4015 15.652 24.3104 15.652 24.1984C15.652 23.8038 15.9868 23.2411 16.3731 22.7508L16.4831 22.8816C16.7664 23.2178 17.1948 23.7267 17.2136 24.0303C17.2346 24.3618 16.8788 24.6817 16.7243 24.8031H16.7266ZM29.4231 6.84895C29.1445 7.12445 28.8635 7.39762 28.5802 7.67078V5.57886C28.5802 4.89011 29.0344 4.07295 29.6877 4.00291C29.7204 3.99824 29.7532 3.99824 29.786 3.99824C30.2519 3.99824 30.6991 4.35312 30.7482 4.78505C30.8278 5.45979 30.0154 6.26294 29.4231 6.84662V6.84895Z" fill="url(#paint1_linear_1345_6415)"/>
<path d="M16.4644 9.85155C18.0833 9.85155 19.3956 8.54283 19.3956 6.92846C19.3956 5.31408 18.0833 4.00537 16.4644 4.00537C14.8456 4.00537 13.5332 5.31408 13.5332 6.92846C13.5332 8.54283 14.8456 9.85155 16.4644 9.85155Z" fill="url(#paint2_linear_1345_6415)"/>
<path d="M52.4263 11.9573L48.0833 17.9809H47.6455L43.3564 11.9573V21.7282H41.3125V8.99219H43.6842L47.8984 14.9598L52.0962 8.99219H54.4679V21.7305H52.424V11.9596L52.4263 11.9573Z" fill="#0069FF"/>
<path d="M57.9375 21.7119V8.97363H59.9627V21.7119H57.9375Z" fill="#0069FF"/>
<path d="M72.2421 18.0347V8.97363H74.286V21.7119H72.7361L65.4923 12.7232V21.7119H63.4297V8.97363H64.9983L72.2421 18.0347Z" fill="#0069FF"/>
<path d="M77.7539 21.7119V8.97363H79.7791V21.7119H77.7539Z" fill="#0069FF"/>
<path d="M94.358 11.9573L90.015 17.9809H89.5772L85.288 11.9573V21.7282H83.2441V8.99219H85.6158L89.83 14.9598L94.0278 8.99219H96.3995V21.7305H94.3556V11.9596L94.358 11.9573Z" fill="#0069FF"/>
<path d="M110.543 8.99219V16.4353C110.543 18.2424 110.021 19.6292 108.974 20.5935C107.927 21.5577 106.595 22.0107 104.978 21.95C103.47 21.9126 102.213 21.4153 101.21 20.4581C100.206 19.5008 99.7051 18.1584 99.7051 16.4377V8.99452H101.73V16.4377C101.73 17.5653 102.028 18.4455 102.625 19.0759C103.222 19.7063 104.006 20.0401 104.978 20.0775C106.024 20.1382 106.876 19.844 107.532 19.195C108.19 18.5459 108.517 17.626 108.517 16.4377V8.99452H110.543V8.99219Z" fill="#0069FF"/>
<path d="M124.958 11.9573L120.615 17.9809H120.177L115.888 11.9573V21.7282H113.844V8.99219H116.215L120.43 14.9598L124.627 8.99219H126.999V21.7305H124.955V11.9596L124.958 11.9573Z" fill="#0069FF"/>
<path d="M45.3074 25.3236C45.1669 25.1228 44.9656 24.9641 44.7057 24.8497C44.4458 24.7353 44.1602 24.6746 43.8512 24.6699C43.4485 24.6699 43.1207 24.7493 42.8679 24.9081C42.615 25.0668 42.4886 25.2839 42.4886 25.5571C42.4886 25.8139 42.6103 26.0007 42.8538 26.1198C43.0973 26.2365 43.4532 26.3299 43.9167 26.3976C44.2632 26.449 44.5606 26.5073 44.8087 26.5727C45.0569 26.6381 45.298 26.7385 45.5392 26.8692C45.7803 27 45.963 27.1797 46.0894 27.4062C46.2158 27.6327 46.279 27.9012 46.279 28.2164C46.279 28.6366 46.1573 28.9845 45.9138 29.2647C45.6703 29.5448 45.373 29.741 45.0218 29.8554C44.6706 29.9698 44.2773 30.0281 43.8395 30.0281C42.6337 30.0281 41.7909 29.5845 41.3086 28.695L42.0156 28.2257C42.3973 28.8678 43.0083 29.19 43.8488 29.19C44.1064 29.19 44.3428 29.1619 44.5559 29.1059C44.7689 29.0499 44.9515 28.9448 45.1061 28.7907C45.2606 28.6366 45.3378 28.4452 45.3378 28.2164C45.3378 27.9199 45.2044 27.7004 44.9375 27.558C44.6706 27.4156 44.303 27.3128 43.8324 27.2521C43.5632 27.2194 43.3314 27.1797 43.1394 27.1354C42.9475 27.091 42.7438 27.0257 42.5307 26.9416C42.3177 26.8576 42.1444 26.7572 42.0133 26.6404C41.8822 26.5237 41.7722 26.3719 41.6855 26.1828C41.5989 25.996 41.5544 25.7812 41.5544 25.5408C41.5544 25.2489 41.6223 24.9921 41.7558 24.7703C41.8892 24.5485 42.0695 24.3711 42.2942 24.2427C42.519 24.1142 42.7602 24.0185 43.0177 23.9531C43.2752 23.8878 43.5445 23.8574 43.8254 23.8574C44.8743 23.8574 45.6047 24.1866 46.0191 24.8473L45.3051 25.326L45.3074 25.3236Z" fill="#FF6155"/>
<path d="M50.8987 24.8709H48.9648V24.0234H53.7737V24.8709H51.8492V29.893H50.8987V24.8709Z" fill="#FF6155"/>
<path d="M61.9547 29.8931H60.8543L59.0633 27.8642H57.8201V29.8931H56.8789V24.0166C57.1809 24.0166 57.6375 24.0166 58.2485 24.0213C58.8596 24.0236 59.3161 24.0259 59.6181 24.0259C60.269 24.0259 60.7771 24.2151 61.1446 24.5909C61.5122 24.9692 61.6948 25.4198 61.6948 25.9451C61.6948 26.4097 61.5637 26.8089 61.3038 27.1475C61.044 27.486 60.6413 27.6938 60.0981 27.7732L61.8564 29.7274L61.957 29.8955L61.9547 29.8931ZM57.8177 24.8805V27.0097H59.6088C59.9787 27.0097 60.2596 26.9093 60.4493 26.7085C60.6389 26.5078 60.7349 26.2579 60.7349 25.9614C60.7349 25.6649 60.6389 25.4174 60.4493 25.2026C60.2596 24.9878 59.981 24.8805 59.6181 24.8805H57.8201H57.8177Z" fill="#FF6155"/>
<path d="M69.5078 29.893H65.1602V24.0234H69.4821V24.9363H66.1013V26.5216H69.3463V27.3925H66.1013V28.9684H69.5055V29.8906L69.5078 29.893Z" fill="#FF6155"/>
<path d="M76.4535 25.3236C76.313 25.1228 76.114 24.9641 75.8518 24.8497C75.5919 24.7353 75.3063 24.6746 74.9996 24.6699C74.5969 24.6699 74.2668 24.7493 74.0163 24.9081C73.7634 25.0668 73.637 25.2839 73.637 25.5571C73.637 25.8139 73.7587 26.0007 74.0022 26.1198C74.2457 26.2365 74.6016 26.3299 75.0652 26.3976C75.4117 26.449 75.709 26.5073 75.9572 26.5727C76.203 26.6404 76.4465 26.7385 76.6876 26.8692C76.9288 27 77.1114 27.1797 77.2378 27.4062C77.3642 27.6327 77.4275 27.9012 77.4275 28.2164C77.4275 28.6366 77.3057 28.9845 77.0622 29.2647C76.8187 29.5448 76.5214 29.741 76.1702 29.8554C75.819 29.9698 75.4257 30.0281 74.9879 30.0281C73.7822 30.0281 72.9393 29.5845 72.457 28.695L73.1641 28.2257C73.5457 28.8678 74.1568 29.19 74.9973 29.19C75.2548 29.19 75.4913 29.1619 75.7043 29.1059C75.9174 29.0499 76.1 28.9448 76.2545 28.7907C76.409 28.6366 76.4863 28.4452 76.4863 28.2164C76.4863 27.9199 76.3528 27.7004 76.0859 27.558C75.819 27.4156 75.4515 27.3128 74.9809 27.2521C74.7116 27.2194 74.4798 27.1797 74.2879 27.1354C74.0959 27.091 73.8922 27.0257 73.6792 26.9416C73.4661 26.8576 73.2928 26.7572 73.1617 26.6404C73.0306 26.5237 72.9206 26.3719 72.834 26.1828C72.7473 25.996 72.7029 25.7812 72.7029 25.5408C72.7029 25.2489 72.7708 24.9921 72.9042 24.7703C73.04 24.5462 73.2179 24.3711 73.4427 24.2427C73.6674 24.1142 73.9086 24.0185 74.1661 23.9531C74.4237 23.8878 74.6929 23.8574 74.9739 23.8574C76.0227 23.8574 76.7532 24.1866 77.1676 24.8473L76.4535 25.326V25.3236Z" fill="#FF6155"/>
<path d="M84.2246 25.3236C84.0841 25.1228 83.8851 24.9641 83.6229 24.8497C83.363 24.7353 83.0774 24.6746 82.7707 24.6699C82.368 24.6699 82.0402 24.7493 81.7874 24.9081C81.5345 25.0668 81.4081 25.2839 81.4081 25.5571C81.4081 25.8139 81.5299 26.0007 81.7733 26.1198C82.0168 26.2365 82.3727 26.3299 82.8363 26.3976C83.1828 26.449 83.4801 26.5073 83.7283 26.5727C83.9741 26.6404 84.2199 26.7385 84.4611 26.8692C84.7022 27 84.8848 27.1797 85.0113 27.4062C85.1377 27.6327 85.2009 27.9012 85.2009 28.2164C85.2009 28.6366 85.0792 28.9845 84.8357 29.2647C84.5922 29.5448 84.2948 29.741 83.9437 29.8554C83.5925 29.9698 83.1991 30.0281 82.7613 30.0281C81.5556 30.0281 80.7128 29.5845 80.2305 28.695L80.9375 28.2257C81.3191 28.8678 81.9302 29.19 82.7707 29.19C83.0282 29.19 83.2647 29.1619 83.4778 29.1059C83.6908 29.0499 83.8734 28.9448 84.0279 28.7907C84.1825 28.6366 84.2597 28.4452 84.2597 28.2164C84.2597 27.9199 84.1263 27.7004 83.8617 27.558C83.5948 27.4156 83.2272 27.3128 82.7567 27.2521C82.4874 27.2194 82.2556 27.1797 82.0637 27.1354C81.8717 27.091 81.668 27.0257 81.4549 26.9416C81.2419 26.8576 81.0686 26.7572 80.9375 26.6404C80.8064 26.5237 80.6964 26.3719 80.6097 26.1828C80.5231 25.996 80.4786 25.7812 80.4786 25.5408C80.4786 25.2489 80.5465 24.9921 80.68 24.7703C80.8158 24.5462 80.9937 24.3711 81.2185 24.2427C81.4432 24.1142 81.6844 24.0185 81.9419 23.9531C82.1994 23.8878 82.4687 23.8574 82.7496 23.8574C83.7985 23.8574 84.529 24.1866 84.9434 24.8473L84.2293 25.326L84.2246 25.3236Z" fill="#FF6155"/>
<path d="M127 26.3203H87.5508V26.6659H127V26.3203Z" fill="url(#paint3_linear_1345_6415)"/>
<path d="M127 27.2168H87.5508V27.5623H127V27.2168Z" fill="url(#paint4_linear_1345_6415)"/>
</g>
<defs>
<linearGradient id="paint0_linear_1345_6415" x1="16.4655" y1="35.884" x2="16.4655" y2="3.11601" gradientUnits="userSpaceOnUse">
<stop stop-color="#FF6155"/>
<stop offset="0.07" stop-color="#FF655B"/>
<stop offset="0.16" stop-color="#FF726C"/>
<stop offset="0.27" stop-color="#FF8888"/>
<stop offset="0.39" stop-color="#FFA7AF"/>
<stop offset="0.59" stop-color="#FFCADE"/>
<stop offset="0.68" stop-color="#B3ADE7"/>
<stop offset="0.77" stop-color="#7394F0"/>
<stop offset="0.84" stop-color="#4181F6"/>
<stop offset="0.91" stop-color="#1D74FB"/>
<stop offset="0.97" stop-color="#076CFD"/>
<stop offset="1" stop-color="#0069FF"/>
</linearGradient>
<linearGradient id="paint1_linear_1345_6415" x1="16.3801" y1="35.8837" x2="16.3801" y2="3.11571" gradientUnits="userSpaceOnUse">
<stop stop-color="#FF6155"/>
<stop offset="0.07" stop-color="#FF655B"/>
<stop offset="0.16" stop-color="#FF726C"/>
<stop offset="0.27" stop-color="#FF8888"/>
<stop offset="0.39" stop-color="#FFA7AF"/>
<stop offset="0.59" stop-color="#FFCADE"/>
<stop offset="0.68" stop-color="#B3ADE7"/>
<stop offset="0.77" stop-color="#7394F0"/>
<stop offset="0.84" stop-color="#4181F6"/>
<stop offset="0.91" stop-color="#1D74FB"/>
<stop offset="0.97" stop-color="#076CFD"/>
<stop offset="1" stop-color="#0069FF"/>
</linearGradient>
<linearGradient id="paint2_linear_1345_6415" x1="16.4644" y1="35.8838" x2="16.4644" y2="3.11584" gradientUnits="userSpaceOnUse">
<stop stop-color="#FF6155"/>
<stop offset="0.07" stop-color="#FF655B"/>
<stop offset="0.16" stop-color="#FF726C"/>
<stop offset="0.27" stop-color="#FF8888"/>
<stop offset="0.39" stop-color="#FFA7AF"/>
<stop offset="0.59" stop-color="#FFCADE"/>
<stop offset="0.68" stop-color="#B3ADE7"/>
<stop offset="0.77" stop-color="#7394F0"/>
<stop offset="0.84" stop-color="#4181F6"/>
<stop offset="0.91" stop-color="#1D74FB"/>
<stop offset="0.97" stop-color="#076CFD"/>
<stop offset="1" stop-color="#0069FF"/>
</linearGradient>
<linearGradient id="paint3_linear_1345_6415" x1="87.7849" y1="26.4931" x2="128.061" y2="26.4931" gradientUnits="userSpaceOnUse">
<stop stop-color="#FF6155"/>
<stop offset="0.07" stop-color="#FF655B"/>
<stop offset="0.16" stop-color="#FF726C"/>
<stop offset="0.27" stop-color="#FF8888"/>
<stop offset="0.39" stop-color="#FFA7AF"/>
<stop offset="0.59" stop-color="#FFCADE"/>
<stop offset="0.68" stop-color="#B3ADE7"/>
<stop offset="0.77" stop-color="#7394F0"/>
<stop offset="0.84" stop-color="#4181F6"/>
<stop offset="0.91" stop-color="#1D74FB"/>
<stop offset="0.97" stop-color="#076CFD"/>
<stop offset="1" stop-color="#0069FF"/>
</linearGradient>
<linearGradient id="paint4_linear_1345_6415" x1="87.7849" y1="27.3896" x2="128.061" y2="27.3896" gradientUnits="userSpaceOnUse">
<stop stop-color="#FF6155"/>
<stop offset="0.07" stop-color="#FF655B"/>
<stop offset="0.16" stop-color="#FF726C"/>
<stop offset="0.27" stop-color="#FF8888"/>
<stop offset="0.39" stop-color="#FFA7AF"/>
<stop offset="0.59" stop-color="#FFCADE"/>
<stop offset="0.68" stop-color="#B3ADE7"/>
<stop offset="0.77" stop-color="#7394F0"/>
<stop offset="0.84" stop-color="#4181F6"/>
<stop offset="0.91" stop-color="#1D74FB"/>
<stop offset="0.97" stop-color="#076CFD"/>
<stop offset="1" stop-color="#0069FF"/>
</linearGradient>
<clipPath id="clip0_1345_6415">
<rect width="127" height="39" fill="white"/>
</clipPath>
</defs>
</svg>
